<?xml version="1.0" encoding="UTF-8" standalone="no"?>
<svg
   xmlns:dc="http://purl.org/dc/elements/1.1/"
   xmlns:cc="http://creativecommons.org/ns#"
   xmlns:rdf="http://www.w3.org/1999/02/22-rdf-syntax-ns#"
   xmlns:svg="http://www.w3.org/2000/svg"
   xmlns="http://www.w3.org/2000/svg"
   id="svg8"
   version="1.1"
   viewBox="0 0 210 210"
   height="210mm"
   width="210mm">
  <defs
     id="defs2" />
  <metadata
     id="metadata5">
    <rdf:RDF>
      <cc:Work
         rdf:about="">
        <dc:format>image/svg+xml</dc:format>
        <dc:type
           rdf:resource="http://purl.org/dc/dcmitype/StillImage" />
        <dc:title></dc:title>
      </cc:Work>
    </rdf:RDF>
  </metadata>
  <g
     transform="translate(0,-87)"
     id="layer1">
    <path
       id="path3811"
       d="m 148.52307,187.70315 -13.82477,13.82588 c 0.52092,0.45404 0.8574,1.11399 0.8574,1.8592 v 8.25503 c 0,1.3677 -1.10936,2.47705 -2.47707,2.47705 h -8.255 c -0.74476,0 -1.40518,-0.33594 -1.85922,-0.85627 l -7.46029,7.46029 h 7.66848 c 1.36768,0 2.47596,1.10939 2.47596,2.47707 v 8.25501 c 0,1.36772 -1.10828,2.47705 -2.47596,2.47705 h -8.255 c -1.36769,0 -2.47707,-1.10933 -2.47707,-2.47705 v -7.66849 L 89.325367,246.9053 v 10.14221 c 0,5.47123 4.435962,9.90602 9.90714,9.90602 h 99.063543 c 5.47117,0 9.906,-4.43479 9.906,-9.90602 v -59.43834 c 0,-5.47119 -4.43483,-9.90602 -9.906,-9.90602 z m -3.88629,13.20914 h 8.255 c 1.36769,0 2.47594,1.10828 2.47594,2.47594 v 8.25503 c 0,1.3677 -1.10825,2.47705 -2.47594,2.47705 h -8.255 c -1.36773,0 -2.47708,-1.10935 -2.47708,-2.47705 v -8.25503 c 0,-1.36766 1.10935,-2.47594 2.47708,-2.47594 z m 19.81201,0 h 8.25504 c 1.36765,0 2.47704,1.10828 2.47704,2.47594 v 8.25503 c 0,1.3677 -1.10939,2.47705 -2.47704,2.47705 h -8.25504 c -1.36769,0 -2.47592,-1.10935 -2.47592,-2.47705 v -8.25503 c 0,-1.36766 1.10823,-2.47594 2.47592,-2.47594 z m 19.81318,0 h 8.255 c 1.3677,0 2.47595,1.10828 2.47595,2.47594 v 8.25503 c 0,1.3677 -1.10825,2.47705 -2.47595,2.47705 h -8.255 c -1.3677,0 -2.47708,-1.10935 -2.47708,-2.47705 v -8.25503 c 0,-1.36766 1.10938,-2.47594 2.47708,-2.47594 z m -49.53232,19.81204 h 8.255 c 1.36768,0 2.47706,1.10939 2.47706,2.47707 v 8.25501 c 0,1.36772 -1.10938,2.47705 -2.47706,2.47705 h -8.255 c -1.36772,0 -2.47596,-1.10933 -2.47596,-2.47705 v -8.25501 c 0,-1.36768 1.10824,-2.47707 2.47596,-2.47707 z m 19.81315,0 h 8.255 c 1.36769,0 2.47707,1.10939 2.47707,2.47707 v 8.25501 c 0,1.36772 -1.10938,2.47705 -2.47707,2.47705 h -8.255 c -1.36769,0 -2.47707,-1.10933 -2.47707,-2.47705 v -8.25501 c 0,-1.36768 1.10938,-2.47707 2.47707,-2.47707 z m 19.81203,0 h 8.25612 c 1.36769,0 2.47595,1.10939 2.47595,2.47707 v 8.25501 c 0,1.36772 -1.10826,2.47705 -2.47595,2.47705 h -8.25612 c -1.36767,0 -2.47595,-1.10933 -2.47595,-2.47705 v -8.25501 c 0,-1.36768 1.10828,-2.47707 2.47595,-2.47707 z m -69.34437,19.81315 h 8.25614 c 1.3677,0 2.47593,1.10822 2.47593,2.47594 v 8.25614 c 0,1.36768 -1.10823,2.47594 -2.47593,2.47594 h -8.25614 c -1.3677,0 -2.47593,-1.10826 -2.47593,-2.47594 v -8.25614 c 0,-1.36772 1.10823,-2.47594 2.47593,-2.47594 z m 19.81317,0 h 47.8802 c 1.36765,0 2.47704,1.10822 2.47704,2.47594 v 8.25614 c 0,1.36768 -1.10939,2.47594 -2.47704,2.47594 h -47.8802 c -1.36771,0 -2.47708,-1.10826 -2.47708,-2.47594 v -8.25614 c 0,-1.36772 1.10937,-2.47594 2.47708,-2.47594 z m 59.43834,0 h 8.255 c 1.3677,0 2.47595,1.10822 2.47595,2.47594 v 8.25614 c 0,1.36768 -1.10825,2.47594 -2.47595,2.47594 h -8.255 c -1.3677,0 -2.47708,-1.10826 -2.47708,-2.47594 v -8.25614 c 0,-1.36772 1.10938,-2.47594 2.47708,-2.47594 z"
       style="fill:#ffffff;stroke-width:0.20638202" />
    <g
       style="fill:#ffffff;stroke:none;stroke-width:42.5311203;stroke-linejoin:round;stroke-miterlimit:4;stroke-dasharray:none;stroke-opacity:1;paint-order:markers fill stroke"
       transform="matrix(0.20995422,0.20995422,-0.20995422,0.20995422,77.440816,81.496163)"
       id="g3783">
      <path
         style="clip-rule:evenodd;fill:#ffffff;fill-rule:evenodd;stroke:none;stroke-width:42.5311203;stroke-linejoin:round;stroke-miterlimit:4;stroke-dasharray:none;stroke-opacity:1;paint-order:markers fill stroke"
         class="st0"
         d="m 286.5,262.8 c 0,-19 -15.4,-34.4 -34.4,-34.4 H 112.9 v 68.8 h 139.2 c 19,0 34.4,-15.5 34.4,-34.4 z"
         id="path3771" />
      <path
         style="clip-rule:evenodd;fill:#ffffff;fill-rule:evenodd;stroke:none;stroke-width:42.5311203;stroke-linejoin:round;stroke-miterlimit:4;stroke-dasharray:none;stroke-opacity:1;paint-order:markers fill stroke"
         class="st0"
         d="m 131.4,18.1 h 249.2 c 3.4,0 6.1,-2.7 6.1,-6.1 v 0 c 0,-3.4 -2.7,-6.1 -6.1,-6.1 H 131.4 c -3.4,0 -6.1,2.7 -6.1,6.1 v 0 c 0,3.4 2.7,6.1 6.1,6.1 z"
         id="path3773" />
      <path
         style="clip-rule:evenodd;fill:#ffffff;fill-rule:evenodd;stroke:none;stroke-width:42.5311203;stroke-linejoin:round;stroke-miterlimit:4;stroke-dasharray:none;stroke-opacity:1;paint-order:markers fill stroke"
         class="st0"
         d="m 323.8,491.7 c 13.6,-10.6 22.3,-26.8 22.3,-45 V 66.9 c 0,-17.1 -7.7,-32.5 -20,-43.1 H 132.9 c -12.3,10.6 -20,26 -20,43.1 v 149.3 h 139.2 c 25.7,0 46.5,20.9 46.5,46.5 0,25.6 -20.9,46.5 -46.5,46.5 H 112.9 v 137.4 c 0,20 10.5,37.6 26.5,48 1.1,-1.8 3,-3 5.2,-3 h 179.2 z"
         id="path3775" />
      <path
         style="clip-rule:evenodd;fill:#ffffff;fill-rule:evenodd;stroke:none;stroke-width:42.5311203;stroke-linejoin:round;stroke-miterlimit:4;stroke-dasharray:none;stroke-opacity:1;paint-order:markers fill stroke"
         class="st0"
         d="m 172.9,506 h 166.2 c 10.2,0 19.8,-3 28.2,-8.2 H 144.7 c 8.4,5.2 18,8.2 28.2,8.2 z"
         id="path3777" />
      <path
         style="clip-rule:evenodd;fill:#ffffff;fill-rule:evenodd;stroke:none;stroke-width:42.5311203;stroke-linejoin:round;stroke-miterlimit:4;stroke-dasharray:none;stroke-opacity:1;paint-order:markers fill stroke"
         class="st0"
         d="m 335.4,491.7 h 11.5 c 13.6,-10.6 22.3,-26.8 22.3,-45 V 66.9 c 0,-17.1 -7.7,-32.5 -20,-43.1 h -11.6 c 12.3,10.6 20,26 20,43.1 v 379.8 c 0,18.2 -8.7,34.4 -22.2,45 z"
         id="path3779" />
      <path
         style="clip-rule:evenodd;fill:#ffffff;fill-rule:evenodd;stroke:none;stroke-width:42.5311203;stroke-linejoin:round;stroke-miterlimit:4;stroke-dasharray:none;stroke-opacity:1;paint-order:markers fill stroke"
         class="st0"
         d="m 379.1,23.9 h -23.4 c 12.3,10.6 20,26 20,43.1 v 379.8 c 0,18.2 -8.7,34.4 -22.3,45 h 13.9 c 2.2,0 4.2,1.2 5.2,3 16,-10.4 26.5,-28 26.5,-48 V 66.9 c 0.1,-17.1 -7.6,-32.4 -19.9,-43 z"
         id="path3781" />
    </g>
  </g>
  <style
     type="text/css"
     id="style3769">
	.st0{fill-rule:evenodd;clip-rule:evenodd;}
</style>
</svg>
